<svg xmlns="http://www.w3.org/2000/svg" viewBox="0 0 1486 381" width="1486" height="381" font-family="Poppins, sans-serif">
  <rect x="0" y="0" width="1486" height="381" rx="0" fill="#F8F6F3"/>
  <g id="mark">
    <line x1="90.00" y1="100.00" x2="90.00" y2="281.20" stroke="#212121" stroke-width="11.0" stroke-linecap="round"/>
    <line x1="290.00" y1="100.00" x2="290.00" y2="281.20" stroke="#212121" stroke-width="11.0" stroke-linecap="round"/>
    <line x1="90.00" y1="100.00" x2="190.00" y2="199.20" stroke="#212121" stroke-width="11.0" stroke-linecap="round"/>
    <line x1="290.00" y1="100.00" x2="190.00" y2="199.20" stroke="#212121" stroke-width="11.0" stroke-linecap="round"/>
    <line x1="190.00" y1="199.20" x2="90.00" y2="281.20" stroke="#212121" stroke-width="11.0" stroke-linecap="round"/>
    <line x1="190.00" y1="199.20" x2="290.00" y2="281.20" stroke="#212121" stroke-width="11.0" stroke-linecap="round"/>
    <circle cx="90.00" cy="100.00" r="27.0" fill="#F33830"/>
    <circle cx="290.00" cy="100.00" r="27.0" fill="#2188EB"/>
    <circle cx="190.00" cy="199.20" r="27.0" fill="#7144B9"/>
    <circle cx="90.00" cy="281.20" r="27.0" fill="#3EB947"/>
    <circle cx="290.00" cy="281.20" r="27.0" fill="#3EB947"/>
  </g>
  <g id="wordmark" fill="#1E1E1E" transform="translate(390.00,216.93)">
    <path transform="translate(0.000,0) scale(0.15000,-0.15000)" d="M209 111H439V0H69V698H209Z"/>
    <path transform="translate(68.850,0) scale(0.15000,-0.15000)" d="M286 563Q348 563 394.5 538.0Q441 513 469 475V554H610V0H469V81Q442 42 394.5 16.5Q347 -9 285 -9Q215 -9 157.5 27.0Q100 63 66.5 128.5Q33 194 33 279Q33 363 66.5 428.0Q100 493 157.5 528.0Q215 563 286 563ZM322 440Q283 440 250.0 421.0Q217 402 196.5 365.5Q176 329 176 279Q176 229 196.5 191.5Q217 154 250.5 134.0Q284 114 322 114Q361 114 395.0 133.5Q429 153 449.0 189.5Q469 226 469 277Q469 328 449.0 364.5Q429 401 395.0 420.5Q361 440 322 440Z"/>
    <path transform="translate(170.550,0) scale(0.15000,-0.15000)" d="M392 563Q463 563 520.5 528.0Q578 493 611.5 428.5Q645 364 645 279Q645 194 611.5 128.5Q578 63 520.5 27.0Q463 -9 392 -9Q331 -9 284.5 16.0Q238 41 209 79V-264H69V554H209V474Q236 512 283.5 537.5Q331 563 392 563ZM355 440Q317 440 283.5 420.5Q250 401 229.5 364.0Q209 327 209 277Q209 227 229.5 190.0Q250 153 283.5 133.5Q317 114 355 114Q394 114 427.5 134.0Q461 154 481.5 191.0Q502 228 502 279Q502 329 481.5 365.5Q461 402 427.5 421.0Q394 440 355 440Z"/>
    <path transform="translate(272.250,0) scale(0.15000,-0.15000)" d="M209 740V0H69V740Z"/>
    <path transform="translate(313.950,0) scale(0.15000,-0.15000)" d="M286 563Q348 563 394.5 538.0Q441 513 469 475V554H610V0H469V81Q442 42 394.5 16.5Q347 -9 285 -9Q215 -9 157.5 27.0Q100 63 66.5 128.5Q33 194 33 279Q33 363 66.5 428.0Q100 493 157.5 528.0Q215 563 286 563ZM322 440Q283 440 250.0 421.0Q217 402 196.5 365.5Q176 329 176 279Q176 229 196.5 191.5Q217 154 250.5 134.0Q284 114 322 114Q361 114 395.0 133.5Q429 153 449.0 189.5Q469 226 469 277Q469 328 449.0 364.5Q429 401 395.0 420.5Q361 440 322 440Z"/>
    <path transform="translate(415.650,0) scale(0.15000,-0.15000)" d="M307 563Q410 563 477.5 511.5Q545 460 568 367H417Q405 403 376.5 423.5Q348 444 306 444Q246 444 211.0 400.5Q176 357 176 277Q176 198 211.0 154.5Q246 111 306 111Q391 111 417 187H568Q545 97 477.0 44.0Q409 -9 307 -9Q227 -9 165.0 26.5Q103 62 68.0 126.5Q33 191 33 277Q33 363 68.0 427.5Q103 492 165.0 527.5Q227 563 307 563Z"/>
    <path transform="translate(505.950,0) scale(0.15000,-0.15000)" d="M54 702Q54 737 78.5 760.5Q103 784 140 784Q177 784 201.5 760.5Q226 737 226 702Q226 667 201.5 643.5Q177 620 140 620Q103 620 78.5 643.5Q54 667 54 702ZM209 554V0H69V554Z"/>
    <path transform="translate(547.650,0) scale(0.15000,-0.15000)" d="M286 563Q348 563 394.5 538.0Q441 513 469 475V554H610V0H469V81Q442 42 394.5 16.5Q347 -9 285 -9Q215 -9 157.5 27.0Q100 63 66.5 128.5Q33 194 33 279Q33 363 66.5 428.0Q100 493 157.5 528.0Q215 563 286 563ZM322 440Q283 440 250.0 421.0Q217 402 196.5 365.5Q176 329 176 279Q176 229 196.5 191.5Q217 154 250.5 134.0Q284 114 322 114Q361 114 395.0 133.5Q429 153 449.0 189.5Q469 226 469 277Q469 328 449.0 364.5Q429 401 395.0 420.5Q361 440 322 440Z"/>
    <path transform="translate(649.350,0) scale(0.15000,-0.15000)" d="M597 325V0H457V306Q457 372 424.0 407.5Q391 443 334 443Q276 443 242.5 407.5Q209 372 209 306V0H69V554H209V485Q237 521 280.5 541.5Q324 562 376 562Q475 562 536.0 499.5Q597 437 597 325Z"/>
    <path transform="translate(748.500,0) scale(0.15000,-0.15000)" d="M35 351Q35 453 83.0 534.5Q131 616 213.0 662.0Q295 708 393 708Q492 708 573.5 662.0Q655 616 702.5 534.5Q750 453 750 351Q750 248 702.5 166.5Q655 85 573.0 39.0Q491 -7 393 -7Q295 -7 213.0 39.0Q131 85 83.0 166.5Q35 248 35 351ZM606 351Q606 421 579.0 473.5Q552 526 504.0 554.0Q456 582 393 582Q330 582 281.5 554.0Q233 526 206.0 473.5Q179 421 179 351Q179 281 206.0 228.0Q233 175 281.5 146.5Q330 118 393 118Q456 118 504.0 146.5Q552 175 579.0 228.0Q606 281 606 351Z"/>
    <path transform="translate(866.250,0) scale(0.15000,-0.15000)" d="M392 563Q463 563 520.5 528.0Q578 493 611.5 428.5Q645 364 645 279Q645 194 611.5 128.5Q578 63 520.5 27.0Q463 -9 392 -9Q331 -9 284.5 16.0Q238 41 209 79V-264H69V554H209V474Q236 512 283.5 537.5Q331 563 392 563ZM355 440Q317 440 283.5 420.5Q250 401 229.5 364.0Q209 327 209 277Q209 227 229.5 190.0Q250 153 283.5 133.5Q317 114 355 114Q394 114 427.5 134.0Q461 154 481.5 191.0Q502 228 502 279Q502 329 481.5 365.5Q461 402 427.5 421.0Q394 440 355 440Z"/>
    <path transform="translate(967.950,0) scale(0.15000,-0.15000)" d="M232 439V171Q232 143 245.5 130.5Q259 118 291 118H356V0H268Q91 0 91 172V439H25V554H91V691H232V554H356V439Z"/>
  </g>
</svg>